<?xml version="1.0" standalone="no"?>
<!DOCTYPE svg PUBLIC "-//W3C//DTD SVG 20010904//EN"
 "http://www.w3.org/TR/2001/REC-SVG-20010904/DTD/svg10.dtd">
<svg version="1.0" xmlns="http://www.w3.org/2000/svg"
 width="200.000000pt" height="200.000000pt" viewBox="0 0 200.000000 200.000000"
 preserveAspectRatio="xMidYMid meet">
<metadata>
Created by potrace 1.16, written by Peter Selinger 2001-2019
</metadata>
<g transform="translate(0.000000,200.000000) scale(0.100000,-0.100000)"
fill="#000000" stroke="none">
<path d="M340 1621 c-50 -10 -88 -38 -111 -82 -18 -36 -19 -63 -19 -539 0
-478 1 -503 20 -539 11 -22 35 -48 53 -60 34 -21 41 -21 717 -21 676 0 683 0
717 21 18 12 42 38 53 60 19 36 20 61 20 539 0 478 -1 503 -20 539 -11 22 -36
50 -57 62 l-38 24 -650 2 c-357 0 -666 -2 -685 -6z m1117 -240 c-45 -43 -170
-161 -277 -263 l-195 -185 -75 68 c-41 37 -163 156 -270 263 l-195 196 547 0
548 0 -83 -79z m173 -461 l0 -380 -630 0 -630 0 0 376 0 376 261 -254 c143
-139 271 -258 282 -265 30 -17 102 -16 136 1 15 8 148 129 297 270 148 140
272 255 277 256 4 0 7 -171 7 -380z"/>
</g>
</svg>
