<?xml version="1.0" standalone="no"?>
<!DOCTYPE svg PUBLIC "-//W3C//DTD SVG 20010904//EN"
 "http://www.w3.org/TR/2001/REC-SVG-20010904/DTD/svg10.dtd">
<svg version="1.0" xmlns="http://www.w3.org/2000/svg"
 width="865.000000pt" height="368.000000pt" viewBox="0 0 865.000000 368.000000"
 preserveAspectRatio="xMidYMid meet">
<metadata>
Created by potrace 1.16, written by Peter Selinger 2001-2019
</metadata>
<g transform="translate(0.000000,368.000000) scale(0.100000,-0.100000)"
fill="#000000" stroke="none">
<path d="M4201 3673 l-94 -4 6 -72 c3 -40 34 -654 69 -1365 l62 -1292 117
-156 c64 -85 141 -191 170 -234 l54 -79 185 -1 c217 0 634 -16 839 -31 79 -5
144 -9 146 -7 1 2 86 710 189 1573 103 864 189 1582 192 1596 l5 26 -188 12
c-103 6 -273 16 -378 22 -199 10 -1212 19 -1374 12z m779 -160 c0 -32 -9 -416
-20 -853 -11 -437 -20 -854 -20 -926 l0 -131 111 -7 c62 -3 114 -5 116 -2 2 2
24 444 49 982 26 539 48 981 50 983 4 4 441 -14 621 -26 87 -6 92 -7 88 -27
-2 -12 -64 -578 -137 -1259 l-132 -1238 -66 6 c-145 12 -486 25 -689 25 l-216
1 -85 115 c-47 64 -136 179 -197 257 -62 78 -113 151 -113 162 -1 11 -18 461
-39 1000 -26 689 -34 982 -27 987 6 4 167 8 359 8 l347 0 0 -57z"/>
<path d="M3685 3653 c-292 -18 -548 -37 -730 -54 -364 -33 -989 -109 -1001
-122 -5 -4 272 -1206 278 -1213 2 -1 80 8 173 22 94 13 197 25 229 26 l60 3
177 -940 c98 -517 180 -955 184 -973 5 -29 10 -33 28 -28 20 4 443 45 640 61
53 5 77 11 77 20 0 7 -45 448 -100 980 -56 532 -99 969 -98 970 2 1 99 7 217
13 117 6 216 13 218 16 2 2 -13 279 -34 615 l-38 611 -115 -2 c-63 -1 -137 -3
-165 -5z m169 -125 c8 -37 35 -462 30 -467 -2 -3 -111 -11 -241 -18 -130 -7
-239 -15 -241 -18 -4 -3 211 -1907 223 -1982 5 -28 3 -33 -17 -37 -66 -12
-531 -47 -538 -40 -4 5 -85 448 -179 984 -95 536 -174 983 -177 993 -7 22 -11
22 -267 -9 -119 -15 -220 -25 -222 -22 -3 3 -29 109 -57 237 -40 180 -49 234
-39 240 39 24 977 119 1481 150 237 14 239 14 244 -11z"/>
<path d="M6280 3598 c0 -7 -81 -618 -179 -1358 l-179 -1344 86 -161 c47 -88
105 -202 129 -252 26 -55 49 -93 58 -93 29 0 416 -51 617 -81 l208 -31 44 38
c24 22 129 114 233 205 l188 167 404 1313 c222 723 406 1319 408 1326 5 13
-17 18 -298 67 -423 75 -932 145 -1393 191 -286 29 -326 30 -326 13z m508
-144 c360 -40 337 -36 334 -64 -1 -14 -93 -460 -203 -993 -110 -532 -198 -971
-195 -976 8 -12 216 -35 226 -25 4 5 107 446 230 979 122 534 225 976 228 984
4 10 19 12 66 6 85 -9 596 -94 622 -103 21 -7 13 -36 -247 -917 -148 -500
-278 -940 -289 -976 -19 -65 -22 -68 -122 -150 -57 -46 -172 -144 -257 -218
l-154 -134 -51 6 c-28 4 -148 20 -266 36 -118 17 -229 31 -247 31 -30 0 -34 5
-132 189 -55 103 -123 228 -152 277 l-51 89 142 985 c78 542 143 991 146 999
5 15 17 14 372 -25z"/>
<path d="M1640 3434 c-274 -46 -645 -115 -880 -165 -274 -59 -520 -115 -524
-120 -6 -7 -144 -334 -189 -447 l-45 -112 555 -1293 c306 -710 556 -1293 557
-1294 0 -1 118 28 261 63 143 36 401 93 573 127 l313 63 68 180 c37 98 82 212
99 253 18 40 32 83 32 95 -1 40 -655 2669 -665 2672 -6 1 -75 -9 -155 -22z
m104 -337 c33 -127 61 -237 63 -242 2 -7 -82 -26 -214 -49 -215 -37 -715 -135
-721 -140 -2 -3 164 -486 170 -491 2 -1 100 17 218 42 279 57 670 126 677 119
6 -6 253 -956 253 -975 0 -7 -24 -68 -54 -135 -29 -66 -82 -192 -117 -278
l-63 -157 -55 -11 c-183 -35 -514 -107 -691 -149 -113 -27 -208 -46 -211 -43
-10 10 -189 444 -189 457 0 12 292 85 613 154 97 21 180 41 183 44 5 4 -138
472 -151 494 -2 4 -501 -107 -679 -151 l-178 -44 -17 42 c-10 22 -109 260
-220 527 l-202 486 95 224 c53 123 100 229 104 235 12 19 692 162 1152 243 91
16 167 30 170 30 3 1 32 -104 64 -232z"/>
<path d="M7786 1268 c-14 -46 -97 -303 -185 -573 -87 -269 -157 -492 -156
-493 2 -2 77 -19 167 -38 90 -19 255 -57 367 -84 112 -28 205 -49 207 -47 16
15 464 1120 458 1127 -13 12 -785 190 -826 190 -4 0 -18 -37 -32 -82z m334
-98 c172 -38 329 -75 357 -85 8 -3 -19 -81 -83 -236 -52 -128 -96 -234 -98
-236 -2 -2 -80 14 -172 36 -93 22 -218 50 -277 62 -64 14 -106 27 -104 33 2 6
39 115 81 242 64 192 80 231 94 228 9 -2 100 -22 202 -44z"/>
</g>
</svg>
